<svg width="36" height="36" viewBox="0 0 36 36" fill="none" xmlns="http://www.w3.org/2000/svg">
<path d="M14.3911 5.91C14.5261 5.097 15.2311 4.5 16.0561 4.5H19.9456C20.7706 4.5 21.4756 5.097 21.6106 5.91L21.9301 7.8315C22.0246 8.3925 22.3996 8.8605 22.8976 9.1365C23.0086 9.1965 23.1181 9.261 23.2276 9.327C23.7151 9.621 24.3076 9.7125 24.8401 9.513L26.6656 8.829C27.0397 8.68831 27.4515 8.68497 27.8279 8.81957C28.2042 8.95417 28.5205 9.21797 28.7206 9.564L30.6646 12.9345C30.8642 13.2806 30.9345 13.6862 30.8631 14.0792C30.7917 14.4723 30.5831 14.8273 30.2746 15.081L28.7701 16.3215C28.3306 16.683 28.1131 17.241 28.1251 17.8095C28.1272 17.937 28.1272 18.0645 28.1251 18.192C28.1131 18.759 28.3306 19.317 28.7701 19.6785L30.2761 20.919C30.9121 21.444 31.0771 22.3515 30.6661 23.064L28.7191 26.4345C28.5193 26.7805 28.2034 27.0443 27.8273 27.1792C27.4513 27.3141 27.0396 27.3112 26.6656 27.171L24.8401 26.487C24.3076 26.2875 23.7151 26.379 23.2261 26.673C23.1173 26.7392 23.0073 26.8032 22.8961 26.865C22.3996 27.1395 22.0246 27.6075 21.9301 28.1685L21.6106 30.09C21.4756 30.9045 20.7706 31.5 19.9456 31.5H16.0546C15.2296 31.5 14.5261 30.903 14.3896 30.09L14.0701 28.1685C13.9771 27.6075 13.6021 27.1395 13.1041 26.8635C12.9928 26.8021 12.8828 26.7386 12.7741 26.673C12.2866 26.379 11.6941 26.2875 11.1601 26.487L9.33456 27.171C8.96066 27.3113 8.54911 27.3144 8.17311 27.1798C7.79711 27.0453 7.48103 26.7817 7.28106 26.436L5.33556 23.0655C5.13598 22.7194 5.06564 22.3138 5.13705 21.9208C5.20846 21.5277 5.417 21.1727 5.72556 20.919L7.23156 19.6785C7.66956 19.3185 7.88706 18.759 7.87656 18.192C7.87422 18.0645 7.87422 17.937 7.87656 17.8095C7.88706 17.2395 7.66956 16.683 7.23156 16.3215L5.72556 15.081C5.41737 14.8273 5.20908 14.4727 5.13767 14.0799C5.06627 13.6872 5.13639 13.2819 5.33556 12.936L7.28106 9.5655C7.48084 9.2192 7.79708 8.95509 8.17343 8.8202C8.54978 8.68532 8.9618 8.68844 9.33606 8.829L11.1601 9.513C11.6941 9.7125 12.2866 9.621 12.7741 9.327C12.8821 9.261 12.9931 9.198 13.1041 9.135C13.6021 8.8605 13.9771 8.3925 14.0701 7.8315L14.3911 5.91Z" stroke="black" stroke-width="2.25" stroke-linecap="round" stroke-linejoin="round"/>
<path d="M22.5 18C22.5 19.1935 22.0259 20.3381 21.182 21.182C20.3381 22.0259 19.1935 22.5 18 22.5C16.8065 22.5 15.6619 22.0259 14.818 21.182C13.9741 20.3381 13.5 19.1935 13.5 18C13.5 16.8065 13.9741 15.6619 14.818 14.818C15.6619 13.9741 16.8065 13.5 18 13.5C19.1935 13.5 20.3381 13.9741 21.182 14.818C22.0259 15.6619 22.5 16.8065 22.5 18Z" stroke="black" stroke-width="2.25" stroke-linecap="round" stroke-linejoin="round"/>
</svg>
