<svg width="1804" height="1200" viewBox="0 0 1804 1200" fill="none" xmlns="http://www.w3.org/2000/svg">
<path d="M444.636 1149.27L444.636 924.195" stroke="black" stroke-width="25.0082"/>
<path d="M1169.88 1149.27L1169.88 924.195" stroke="black" stroke-width="25.0082"/>
<path d="M920.443 850.021C1012.79 816.426 1024.1 725.397 1018.21 684.082" stroke="black" stroke-width="25.0081"/>
<path d="M955.296 852.187C952.771 835.987 934.815 823.742 913.417 827.077C892.019 830.412 878.642 847.542 881.167 863.742C883.692 879.941 901.648 892.187 923.046 888.852C944.444 885.516 957.821 868.386 955.296 852.187Z" fill="black" stroke="black" stroke-width="12.5041"/>
<path d="M889.75 862.525C797.404 828.929 786.093 737.9 791.981 696.585" stroke="black" stroke-width="25.0081"/>
<path d="M854.897 864.691C857.423 848.491 875.379 836.246 896.777 839.581C918.175 842.916 931.552 860.046 929.027 876.246C926.502 892.445 908.546 904.691 887.148 901.355C865.75 898.02 852.372 880.89 854.897 864.691Z" fill="black" stroke="black" stroke-width="12.5041"/>
<path d="M1300.56 526.31C1289.63 489.744 1277.46 395.078 1316.24 308.949" stroke="black" stroke-width="20.0065" stroke-linecap="round"/>
<path d="M632.195 1149.27L632.195 924.195" stroke="black" stroke-width="25.0082"/>
<path d="M1357.44 1149.27L1357.44 924.195" stroke="black" stroke-width="25.0082"/>
<path d="M510.493 433.421C511.778 407.125 502.906 342.07 457.134 292.211" stroke="black" stroke-width="20.0065" stroke-linecap="round"/>
<path d="M1548.58 702.592C1644.98 721.665 1701.79 649.645 1718.14 611.251" stroke="black" stroke-width="25.0082"/>
<path d="M1716.09 648.855C1731.42 654.672 1750.94 645.122 1758.63 624.875C1766.31 604.627 1758.04 584.529 1742.71 578.712C1727.38 572.895 1707.86 582.444 1700.17 602.692C1692.49 622.939 1700.76 643.038 1716.09 648.855Z" fill="black" stroke="black" stroke-width="12.5041"/>
<path d="M1721.55 563.993L1707.73 600.398" stroke="black" stroke-width="18.7561" stroke-linecap="round"/>
<path d="M263.419 727.589C167.021 746.662 110.212 674.642 93.8567 636.248" stroke="black" stroke-width="25.0082"/>
<path d="M95.9098 673.852C80.5814 679.669 61.0576 670.119 53.3737 649.872C45.6898 629.625 53.9619 609.526 69.2902 603.709C84.6186 597.892 104.142 607.442 111.826 627.689C119.51 647.936 111.238 668.035 95.9098 673.852Z" fill="black" stroke="black" stroke-width="12.5041"/>
<path d="M90.4521 588.99L104.268 625.394" stroke="black" stroke-width="18.7561" stroke-linecap="round"/>
<circle cx="1276.15" cy="655.357" r="293.846" fill="url(#paint0_radial_1394_1862)"/>
<circle cx="538.421" cy="667.861" r="293.846" fill="url(#paint1_radial_1394_1862)"/>
<path d="M457.136 1149.27C457.136 1166.53 434.743 1174.28 407.12 1174.28C379.497 1174.28 357.104 1174.28 357.104 1143.02C357.104 1111.76 379.497 1111.76 407.12 1111.76C434.743 1111.76 457.136 1132 457.136 1149.27Z" fill="black"/>
<path d="M1182.38 1149.27C1182.38 1166.53 1159.99 1174.28 1132.36 1174.28C1104.74 1174.28 1082.35 1174.28 1082.35 1143.02C1082.35 1111.76 1104.74 1111.76 1132.36 1111.76C1159.99 1111.76 1182.38 1132 1182.38 1149.27Z" fill="black"/>
<path d="M619.694 1149.27C619.694 1166.53 642.087 1174.28 669.71 1174.28C697.334 1174.28 719.727 1174.28 719.727 1143.02C719.727 1111.76 697.334 1111.76 669.71 1111.76C642.087 1111.76 619.694 1132 619.694 1149.27Z" fill="black"/>
<path d="M1344.93 1149.27C1344.93 1166.53 1367.32 1174.28 1394.94 1174.28C1422.57 1174.28 1444.96 1174.28 1444.96 1143.02C1444.96 1111.76 1422.57 1111.76 1394.94 1111.76C1367.32 1111.76 1344.93 1132 1344.93 1149.27Z" fill="black"/>
<path d="M1139.36 548.99C1151.53 548.99 1162.2 551.324 1171.37 555.992C1180.71 560.494 1188.46 566.829 1194.63 574.999C1200.8 583.168 1205.38 592.588 1208.39 603.258C1211.55 613.761 1213.14 624.848 1213.14 636.519C1213.14 652.524 1210.39 667.195 1204.88 680.533C1199.38 693.704 1191.21 704.291 1180.38 712.293C1169.54 720.129 1155.87 724.047 1139.36 724.047H1076.84C1074.01 724.047 1071.59 723.047 1069.59 721.046C1067.76 719.046 1066.84 716.628 1066.84 713.794V558.993C1066.84 556.159 1067.76 553.825 1069.59 551.991C1071.59 549.99 1074.01 548.99 1076.84 548.99H1139.36ZM1136.86 704.541C1149.7 704.541 1160.12 701.457 1168.12 695.288C1176.29 689.119 1182.21 680.866 1185.88 670.53C1189.71 660.193 1191.63 648.856 1191.63 636.519C1191.63 627.516 1190.55 618.93 1188.38 610.76C1186.38 602.424 1183.13 595.089 1178.63 588.753C1174.29 582.418 1168.62 577.416 1161.62 573.748C1154.78 570.08 1146.53 568.246 1136.86 568.246H1085.6L1087.6 566.246V707.042L1086.1 704.541H1136.86Z" fill="black"/>
<path d="M489.151 561.494C501.322 561.494 511.992 563.829 521.161 568.497C530.498 572.998 538.25 579.334 544.419 587.503C550.588 595.672 555.172 605.092 558.173 615.762C561.341 626.266 562.925 637.352 562.925 649.023C562.925 665.028 560.174 679.7 554.672 693.037C549.171 706.208 541.001 716.795 530.164 724.798C519.327 732.634 505.656 736.552 489.151 736.552H426.631C423.796 736.552 421.379 735.551 419.378 733.551C417.544 731.55 416.627 729.132 416.627 726.298V571.498C416.627 568.663 417.544 566.329 419.378 564.495C421.379 562.495 423.796 561.494 426.631 561.494H489.151ZM486.65 717.045C499.488 717.045 509.908 713.961 517.91 707.792C526.08 701.623 531.998 693.371 535.666 683.034C539.501 672.697 541.418 661.36 541.418 649.023C541.418 640.02 540.334 631.434 538.167 623.265C536.166 614.929 532.915 607.593 528.414 601.257C524.079 594.922 518.41 589.92 511.408 586.253C504.573 582.585 496.32 580.751 486.65 580.751H435.383L437.384 578.75V719.546L435.884 717.045H486.65Z" fill="black"/>
<path d="M1333.57 288.966C1322.51 285.255 1313 280.572 1305.05 274.916C1297.15 269.102 1290.34 261.366 1284.61 251.707C1283.14 249.279 1282.22 246.773 1281.86 244.189C1281.49 241.605 1281.68 239.207 1282.42 236.994C1283.64 233.358 1285.97 230.621 1289.4 228.782C1293.04 226.838 1296.84 226.529 1300.79 227.854C1303.79 228.861 1306.16 230.711 1307.89 233.403C1312.26 240.318 1316.94 246.02 1321.94 250.511C1327.1 255.054 1334.02 258.784 1342.72 261.7C1348.57 263.661 1354.23 264.594 1359.72 264.499C1365.25 264.245 1370.03 263.121 1374.04 261.125C1378.1 258.97 1380.79 255.918 1382.12 251.966C1383.71 247.224 1383.64 242.716 1381.91 238.442C1380.18 234.169 1376.76 229.945 1371.65 225.77C1366.6 221.438 1359.78 217.128 1351.19 212.842C1343.08 208.715 1336.21 204.3 1330.57 199.597C1325 194.737 1320.66 189.588 1317.55 184.152C1314.66 178.611 1313.01 172.782 1312.6 166.666C1312.25 160.391 1313.21 153.855 1315.49 147.058C1318.93 136.784 1324.48 128.886 1332.14 123.364C1339.95 117.895 1349 114.775 1359.28 114.003C1369.56 113.231 1380.16 114.674 1391.06 118.332C1401.34 121.778 1410.29 126.54 1417.93 132.617C1425.77 138.589 1431.66 144.873 1435.61 151.471C1438.97 156.644 1439.86 161.601 1438.27 166.343C1437.1 169.821 1434.7 172.532 1431.06 174.476C1427.41 176.42 1423.78 176.782 1420.14 175.563C1417.77 174.768 1415.87 173.341 1414.45 171.282C1412.67 168.221 1409.96 165.026 1406.33 161.698C1402.75 158.212 1398.8 155.041 1394.48 152.186C1390.22 149.173 1386.03 146.977 1381.92 145.599C1375.12 143.319 1369.06 142.254 1363.74 142.402C1358.57 142.604 1354.3 143.808 1350.92 146.016C1347.54 148.225 1345.19 151.304 1343.86 155.256C1342.27 159.998 1342.29 164.401 1343.92 168.463C1345.76 172.421 1348.96 176.223 1353.55 179.869C1358.18 183.357 1363.89 187.032 1370.69 190.893C1379.59 195.812 1387.2 200.65 1393.51 205.407C1399.99 210.217 1404.96 215.313 1408.43 220.697C1411.96 225.923 1413.95 231.779 1414.41 238.265C1414.93 244.592 1413.83 251.787 1411.13 259.848C1407.68 270.123 1401.87 278.02 1393.69 283.541C1385.5 289.062 1376.09 292.234 1365.44 293.058C1354.94 293.935 1344.32 292.571 1333.57 288.966Z" fill="#F3705F"/>
<path d="M517.956 275.301C513.703 277.225 509.495 277.025 505.332 274.699L421.364 229.242L432.513 198.672L519.54 246.039C522.973 247.963 525.445 250.596 526.956 253.938C528.88 258.191 528.866 262.406 526.913 266.583C524.891 270.609 521.905 273.515 517.956 275.301ZM448.024 113.428C451.67 111.779 455.319 111.958 458.972 113.966C462.708 115.752 465.263 118.165 466.637 121.203C468.08 124.393 468.053 127.973 466.556 131.944L412.418 266.501L396.539 234.433L439.23 123.72C441.143 118.645 444.074 115.215 448.024 113.428ZM422.258 318.592C418.005 320.516 414.003 320.771 410.252 319.357C406.433 317.791 403.63 315.033 401.844 311.083L342.268 179.385C340.481 175.435 340.371 171.551 341.937 167.732C343.434 163.761 346.309 160.813 350.563 158.889C354.816 156.965 358.776 156.82 362.443 158.455C366.194 159.869 368.963 162.551 370.749 166.5L430.325 298.199C432.112 302.149 432.332 306.075 430.987 309.977C429.573 313.728 426.663 316.599 422.258 318.592Z" fill="#4EB678"/>
<path d="M1219.88 711.625C1231 730.093 1261.01 726.399 1269.9 711.625" stroke="black" stroke-width="20.0065" stroke-linecap="round"/>
<path d="M1410.58 630.349C1410.58 670.778 1380.49 702.247 1344.93 702.247C1309.37 702.247 1279.29 670.778 1279.29 630.349C1279.29 589.919 1309.37 558.45 1344.93 558.45C1380.49 558.45 1410.58 589.919 1410.58 630.349Z" stroke="black" stroke-width="18.7561"/>
<path d="M760.365 642.852C760.365 683.282 730.282 714.751 694.719 714.751C659.156 714.751 629.072 683.282 629.072 642.852C629.072 602.423 659.156 570.954 694.719 570.954C730.282 570.954 760.365 602.423 760.365 642.852Z" stroke="black" stroke-width="18.7561"/>
<path d="M1119.85 645.074C1130.35 632.601 1158.53 635.214 1166.85 645.257" stroke="black" stroke-width="20.0065" stroke-linecap="round"/>
<path d="M1319.92 645.074C1330.41 632.601 1358.6 635.214 1366.91 645.257" stroke="black" stroke-width="20.0065" stroke-linecap="round"/>
<path d="M469.644 657.578C480.135 645.104 508.32 647.717 516.634 657.761" stroke="black" stroke-width="21.2569" stroke-linecap="round"/>
<path d="M669.71 657.578C680.201 645.104 708.386 647.717 716.701 657.761" stroke="black" stroke-width="21.2569" stroke-linecap="round"/>
<mask id="path-34-inside-1_1394_1862" fill="white">
<path d="M572.089 704.788C565.184 704.788 559.46 710.433 560.724 717.223C562.333 725.86 565.603 733.83 570.266 740.242C577.104 749.645 586.379 754.927 596.05 754.927C605.722 754.927 614.997 749.645 621.835 740.242C626.498 733.83 629.768 725.86 631.377 717.223C632.641 710.433 626.917 704.788 620.012 704.788L596.05 704.788L572.089 704.788Z"/>
</mask>
<path d="M572.089 704.788C565.184 704.788 559.46 710.433 560.724 717.223C562.333 725.86 565.603 733.83 570.266 740.242C577.104 749.645 586.379 754.927 596.05 754.927C605.722 754.927 614.997 749.645 621.835 740.242C626.498 733.83 629.768 725.86 631.377 717.223C632.641 710.433 626.917 704.788 620.012 704.788L596.05 704.788L572.089 704.788Z" stroke="black" stroke-width="36.4651" mask="url(#path-34-inside-1_1394_1862)"/>
<defs>
<radialGradient id="paint0_radial_1394_1862" cx="0" cy="0" r="1" gradientUnits="userSpaceOnUse" gradientTransform="translate(1251.15 667.861) rotate(-59.8265) scale(310.972)">
<stop offset="0.235" stop-color="#FAEB9A"/>
<stop offset="0.53" stop-color="#ECA461"/>
<stop offset="0.83" stop-color="#F3715F"/>
<stop offset="1" stop-color="#E54C4C"/>
</radialGradient>
<radialGradient id="paint1_radial_1394_1862" cx="0" cy="0" r="1" gradientUnits="userSpaceOnUse" gradientTransform="translate(588.437 680.365) rotate(-126.656) scale(335.112)">
<stop offset="0.255" stop-color="#FFEBA5"/>
<stop offset="0.435" stop-color="#D5E99A"/>
<stop offset="0.685" stop-color="#87D274"/>
<stop offset="1" stop-color="#21A07A"/>
</radialGradient>
</defs>
</svg>
