<svg width="24" height="24" viewBox="0 0 24 24" fill="none" xmlns="http://www.w3.org/2000/svg">
<path d="M8.24223 5.992H20.2422M8.24223 11.995H20.2402M8.24023 17.994H20.2402M4.11723 7.495V3.745H2.99023M2.99023 7.495H4.11523H5.24023M3.32023 10.072C3.42366 9.96323 3.54781 9.87627 3.68536 9.81622C3.82291 9.75616 3.97108 9.72424 4.12116 9.72233C4.27123 9.72042 4.42017 9.74856 4.55921 9.80509C4.69824 9.86163 4.82456 9.9454 4.93072 10.0515C5.03688 10.1576 5.12074 10.2839 5.17736 10.4229C5.23397 10.5619 5.26221 10.7108 5.26039 10.8609C5.25858 11.0109 5.22675 11.1591 5.16678 11.2967C5.10682 11.4343 5.01993 11.5585 4.91123 11.662L3.08123 13.492H5.24123M2.99023 15.745H4.11523C4.4136 15.745 4.69975 15.8635 4.91073 16.0745C5.12171 16.2855 5.24023 16.5716 5.24023 16.87C5.24023 17.1684 5.12171 17.4545 4.91073 17.6655C4.69975 17.8765 4.4136 17.995 4.11523 17.995H3.74023M3.74023 17.993H4.11523C4.4136 17.993 4.69975 18.1115 4.91073 18.3225C5.12171 18.5335 5.24023 18.8196 5.24023 19.118C5.24023 19.4164 5.12171 19.7025 4.91073 19.9135C4.69975 20.1245 4.4136 20.243 4.11523 20.243H2.99023" stroke="black" stroke-width="1.5" stroke-linecap="round" stroke-linejoin="round"/>
</svg>
