<svg width="36" height="36" viewBox="0 0 36 36" fill="none" xmlns="http://www.w3.org/2000/svg">
<path d="M3.375 20.25H9.165C9.7917 20.2502 10.406 20.4248 10.939 20.7544C11.472 21.084 11.9028 21.5554 12.183 22.116L12.567 22.884C12.8473 23.4448 13.2783 23.9164 13.8116 24.246C14.345 24.5756 14.9595 24.7501 15.5865 24.75H20.4135C21.0405 24.7501 21.655 24.5756 22.1884 24.246C22.7217 23.9164 23.1527 23.4448 23.433 22.884L23.817 22.116C24.0973 21.5552 24.5283 21.0836 25.0616 20.754C25.595 20.4244 26.2095 20.2499 26.8365 20.25H32.625M3.375 20.757V27C3.375 27.8951 3.73058 28.7535 4.36351 29.3865C4.99645 30.0194 5.85489 30.375 6.75 30.375H29.25C30.1451 30.375 31.0035 30.0194 31.6365 29.3865C32.2694 28.7535 32.625 27.8951 32.625 27V20.757C32.625 20.421 32.574 20.0865 32.475 19.7655L28.86 8.007C28.6477 7.31736 28.22 6.71392 27.6395 6.28522C27.0591 5.85652 26.3566 5.62513 25.635 5.625H10.3665C9.64492 5.62513 8.94239 5.85652 8.36197 6.28522C7.78155 6.71392 7.3538 7.31736 7.1415 8.007L3.525 19.7655C3.42591 20.0867 3.37535 20.4209 3.375 20.757Z" stroke="black" stroke-width="2.25" stroke-linecap="round" stroke-linejoin="round"/>
</svg>
